<?xml version="1.0" encoding="utf-8"?>
<!-- Generator: Adobe Illustrator 21.0.0, SVG Export Plug-In . SVG Version: 6.00 Build 0)  -->
<!DOCTYPE svg PUBLIC "-//W3C//DTD SVG 1.1//EN" "http://www.w3.org/Graphics/SVG/1.1/DTD/svg11.dtd">
<svg version="1.1" id="primary_logo" xmlns="http://www.w3.org/2000/svg" xmlns:xlink="http://www.w3.org/1999/xlink" x="0px"
	 y="0px" viewBox="0 0 432 288" enable-background="new 0 0 432 288" xml:space="preserve">
<g>
	<path id="element" fill="#00B388" d="M48.5,73.3v32.9h0h114.7V73.3H48.5z M156,99.1H55.7V80.5H156V99.1z"/>
	<path d="M55.7,160.7h-7.2v-32.9h7.2v13h12.8v-13h7.2v32.9h-7.2v-13.7H55.7V160.7z M91.9,161.2c-7.3,0-12.2-4.6-12.2-12.1
		c0-7.3,4.8-12.4,11.3-12.4c7,0,10.5,4.7,10.5,11.7v2.6h-15c0.8,3.6,3.7,4.6,6.5,4.6c2.5,0,4.3-0.5,6.5-1.9h0.3v5.4
		C97.9,160.6,95.2,161.2,91.9,161.2z M86.5,146.3H95c-0.2-2.4-1.2-4.1-4-4.1C89,142.2,87.1,143.1,86.5,146.3z M120.2,146.9
		l-3.7,13.8h-6.3l-7.2-23.2v-0.3h6.9l3.9,13.9l3.7-13.9h5.6l3.7,13.9l4-13.9h6.6v0.3l-7.2,23.2h-6.3L120.2,146.9z M149,161.2
		c-5.7,0-8-2.3-8-7.6v-25.9h7v25.4c0,1.6,0.6,2.2,2,2.2c0.5,0,1.2-0.2,1.6-0.3h0.1v5.7C151.1,161,150.1,161.2,149,161.2z
		 M165.8,161.2c-7.3,0-12.2-4.6-12.2-12.1c0-7.3,4.8-12.4,11.3-12.4c7,0,10.5,4.7,10.5,11.7v2.6h-15c0.8,3.6,3.7,4.6,6.5,4.6
		c2.5,0,4.3-0.5,6.5-1.9h0.3v5.4C171.8,160.6,169.1,161.2,165.8,161.2z M160.4,146.3h8.5c-0.2-2.4-1.2-4.1-4-4.1
		C162.9,142.2,161,143.1,160.4,146.3z M203.9,137.3h5.2v5.6h-5.2v9.5c0,2.1,0.8,3,2.9,3c0.6,0,1.3-0.1,2.1-0.3h0.2v5.5
		c-0.9,0.3-2.3,0.7-4.3,0.7c-5.6,0-7.9-2.6-7.9-8.5v-9.9h-8.9v9.5c0,2.1,0.8,3,2.9,3c0.6,0,1.3-0.1,2.1-0.3h0.2v5.5
		c-0.9,0.3-2.3,0.7-4.3,0.7c-5.6,0-7.9-2.6-7.9-8.5v-9.9h-3.6v-5.6h3.6v-6.4h7v6.4h8.9v-6.4h7V137.3z M245.2,138.9
		c0,7.2-4.8,11.1-12.1,11.1H228v10.7h-7.2v-32.9h12.3C240.4,127.8,245.2,131.7,245.2,138.9z M232.5,144c3.6,0,5.4-2.1,5.4-5
		c0-3.1-1.7-5.1-5.4-5.1H228V144H232.5z M260.7,158.4c-1.5,1.8-3.8,2.7-6.2,2.7c-4.6,0-8.3-2.8-8.3-7.7c0-4.6,3.7-7.6,9.1-7.6
		c1.7,0,3.4,0.3,5.2,0.8v-0.4c0-2.5-1.4-3.6-5.2-3.6c-2.4,0-4.6,0.7-6.6,1.8h-0.3v-5.6c1.8-1.1,5-2,8.1-2c7.1,0,10.9,3.4,10.9,9.3
		v14.7h-6.7V158.4z M260.5,153.3v-2c-1.1-0.6-2.4-0.8-3.8-0.8c-2.3,0-3.6,0.8-3.6,2.7c0,2,1.4,2.8,3.4,2.8
		C258.4,156.1,259.8,155.1,260.5,153.3z M271,149c0-7.5,5.3-12.3,12.3-12.3c2.5,0,4.8,0.5,6.5,1.8v6h-0.3c-1.5-1.2-3.3-1.8-5.4-1.8
		c-3.5,0-6.1,2.4-6.1,6.4c0,4,2.6,6.3,6.1,6.3c2.1,0,3.8-0.7,5.4-1.8h0.3v6c-1.7,1.3-4.1,1.8-6.5,1.8C276.3,161.2,271,156.5,271,149
		z M301.1,150.1v10.6h-7v-32.9h7v18.8l7-9.3h7.9v0.3l-8.4,10.6l8.4,12.3v0.3h-8L301.1,150.1z M331.8,158.4c-1.5,1.8-3.8,2.7-6.2,2.7
		c-4.6,0-8.3-2.8-8.3-7.7c0-4.6,3.7-7.6,9.1-7.6c1.7,0,3.4,0.3,5.2,0.8v-0.4c0-2.5-1.4-3.6-5.2-3.6c-2.4,0-4.6,0.7-6.6,1.8h-0.3
		v-5.6c1.8-1.1,5-2,8.1-2c7.1,0,10.9,3.4,10.9,9.3v14.7h-6.7V158.4z M331.6,153.3v-2c-1.1-0.6-2.4-0.8-3.8-0.8
		c-2.3,0-3.6,0.8-3.6,2.7c0,2,1.4,2.8,3.4,2.8C329.5,156.1,331,155.1,331.6,153.3z M350.3,141.1c1.3-2.6,3.1-4.1,5.7-4.1
		c0.9,0,1.9,0.2,2.3,0.4v6.6H358c-0.8-0.3-1.7-0.5-3.1-0.5c-2.2,0-3.8,1.3-4.4,3.7v13.5h-7v-23.5h6.7V141.1z M376.9,158.3
		c-1.5,1.9-3.8,3-7,3c-6,0-9.9-5.5-9.9-12.2c0-6.7,3.8-12.3,9.9-12.3c3.1,0,5.3,0.9,6.7,2.7v-11.6h7v32.9h-6.7V158.3z M376.7,152.8
		v-7.5c-1.2-1.7-2.7-2.4-4.4-2.4c-3.1,0-5.1,2.2-5.1,6.2c0,4,2.1,6.2,5.1,6.2C374,155.2,375.5,154.4,376.7,152.8z M48.5,171.5h20.3
		v4H53.1v10.1h14.3v3.9H53.1v11h15.8v4H48.5V171.5z M85.7,180.7c5.2,0,8.1,3.4,8.1,9.1v14.6h-4.4v-14.5c0-3-1.5-5.2-4.8-5.2
		c-2.7,0-5.1,1.7-5.9,4.2v15.4h-4.4v-23.2h4.4v3.4C80.1,182.4,82.4,180.7,85.7,180.7z M105.5,181.2h6v3.7h-6v12.5
		c0,2.6,1.4,3.5,3.8,3.5c0.7,0,1.4-0.1,2-0.3h0.2v3.7c-0.6,0.3-1.5,0.5-2.7,0.5c-5.4,0-7.6-2.5-7.6-7V185h-4v-3.7h4v-6.2h4.4V181.2z
		 M125.7,204.9c-6.8,0-11.4-4.5-11.4-11.8c0-7.3,4.3-12.3,10.6-12.3c6.4,0,9.7,4.6,9.7,11.4v2h-15.9c0.5,4.7,3.5,7,7.6,7
		c2.6,0,4.4-0.6,6.5-2.1h0.2v3.8C131,204.3,128.6,204.9,125.7,204.9z M118.8,190.5h11.5c-0.2-3.4-1.8-6.1-5.4-6.1
		C121.6,184.5,119.4,187,118.8,190.5z M144.1,184.8c1-2.5,3.2-4,5.7-4c1,0,1.9,0.2,2.3,0.4v4.3H152c-0.6-0.3-1.7-0.5-2.7-0.5
		c-2.4,0-4.4,1.6-5.1,4.2v15.1h-4.4v-23.2h4.4V184.8z M167,180.7c6.9,0,10.6,5.6,10.6,12.1c0,6.4-3.7,12.1-10.6,12.1
		c-2.8,0-5.3-1.5-6.5-3.1v11.5h-4.4v-32.1h4.4v2.6C161.7,182.2,164.1,180.7,167,180.7z M166.2,200.9c4.3,0,6.9-3.4,6.9-8.1
		c0-4.6-2.5-8.1-6.9-8.1c-2.4,0-4.6,1.4-5.7,3.7v8.9C161.7,199.6,163.9,200.9,166.2,200.9z M187.1,184.8c1-2.5,3.2-4,5.7-4
		c1,0,1.9,0.2,2.3,0.4v4.3H195c-0.6-0.3-1.7-0.5-2.7-0.5c-2.4,0-4.4,1.6-5.1,4.2v15.1h-4.4v-23.2h4.4V184.8z M201.5,171.8
		c1.5,0,2.8,1.2,2.8,2.7c0,1.5-1.3,2.7-2.8,2.7c-1.5,0-2.8-1.2-2.8-2.7C198.7,173.1,200,171.8,201.5,171.8z M199.3,181.2h4.4v23.2
		h-4.4V181.2z M219.3,190.9c3.3,1.1,7,2.4,7,6.9c0,4.7-3.9,7.2-8.9,7.2c-3.1,0-6.1-0.7-7.9-2.1v-4.2h0.2c2,1.8,4.8,2.6,7.6,2.6
		c2.5,0,4.7-1,4.7-3c0-2.1-1.8-2.5-5.5-3.7c-3.3-1.1-6.9-2.3-6.9-6.6c0-4.5,3.7-7.1,8.4-7.1c2.7,0,5.2,0.6,7.1,1.9v4.2H225
		c-1.9-1.5-4.1-2.4-6.9-2.4c-2.7,0-4.3,1.2-4.3,2.8C213.8,189.1,215.5,189.7,219.3,190.9z M241.5,204.9c-6.8,0-11.4-4.5-11.4-11.8
		c0-7.3,4.3-12.3,10.6-12.3c6.4,0,9.7,4.6,9.7,11.4v2h-15.9c0.5,4.7,3.5,7,7.6,7c2.6,0,4.4-0.6,6.5-2.1h0.2v3.8
		C246.8,204.3,244.4,204.9,241.5,204.9z M234.6,190.5h11.5c-0.2-3.4-1.8-6.1-5.4-6.1C237.4,184.5,235.2,187,234.6,190.5z"/>
</g>
<g>
	<path d="M54.1,242.9c-3.4,0-5.7-2.6-5.7-6.4s2.3-6.4,5.7-6.4c3.4,0,5.7,2.6,5.7,6.4S57.5,242.9,54.1,242.9z M54.1,231.9
		c-2.2,0-3.5,1.9-3.5,4.6s1.3,4.6,3.5,4.6c2.2,0,3.5-1.9,3.5-4.6S56.4,231.9,54.1,231.9z"/>
	<path d="M64.7,247.3h-2.1v-17h2.1v1.4c0.6-0.9,1.9-1.7,3.5-1.7c3.6,0,5.5,3,5.5,6.4s-1.9,6.4-5.5,6.4c-1.5,0-2.8-0.8-3.5-1.7V247.3
		z M64.7,239c0.6,1.3,1.9,2,3.2,2c2.4,0,3.7-1.9,3.7-4.5c0-2.6-1.4-4.5-3.7-4.5c-1.3,0-2.5,0.7-3.2,2V239z"/>
	<path d="M77.8,236.8c0.1,2.9,1.9,4.2,4.1,4.2c1.4,0,2.4-0.3,3.5-1.2v1.9c-1,0.8-2.3,1.1-3.7,1.1c-3.5,0-5.9-2.4-5.9-6.3
		c0-3.8,2.2-6.5,5.5-6.5c3.3,0,5,2.4,5,6v0.7H77.8z M77.9,235.2h6.3c-0.1-1.8-1-3.4-3-3.4C79.6,231.8,78.3,232.9,77.9,235.2z"/>
	<path d="M95.4,232.4c-0.3-0.2-0.9-0.3-1.4-0.3c-1.3,0-2.4,0.9-2.9,2.3v8.3h-2.1v-12.3h2.1v1.6c0.5-1.1,1.7-1.9,3-1.9
		c0.5,0,1,0.1,1.2,0.2V232.4z"/>
	<path d="M104.5,234.4c0-1.5-1.1-2.5-2.9-2.5c-1.4,0-2.5,0.4-3.5,1.1v-2c0.8-0.6,2.3-1,3.8-1c2.9,0,4.6,1.6,4.6,4.2v8.3h-2v-0.9
		c-0.5,0.5-1.7,1.1-3.2,1.1c-2.5,0-4.6-1.5-4.6-3.9c0-2.3,2-3.9,4.7-3.9c1.3,0,2.5,0.5,3.1,1V234.4z M104.5,238.3
		c-0.3-0.9-1.6-1.5-2.9-1.5c-1.5,0-2.9,0.7-2.9,2.1c0,1.5,1.4,2.2,2.9,2.2c1.3,0,2.5-0.6,2.9-1.5V238.3z"/>
	<path d="M113.4,242.6h-2.1v-10.5h-2.6v-1.8h2.6v-3.2h2.1v3.2h2.9v1.8h-2.9V242.6z"/>
	<path d="M119.7,236.8c0.1,2.9,1.9,4.2,4.1,4.2c1.4,0,2.4-0.3,3.5-1.2v1.9c-1,0.8-2.3,1.1-3.7,1.1c-3.5,0-5.9-2.4-5.9-6.3
		c0-3.8,2.2-6.5,5.5-6.5c3.3,0,5,2.4,5,6v0.7H119.7z M119.8,235.2h6.3c-0.1-1.8-1-3.4-3-3.4C121.5,231.8,120.2,232.9,119.8,235.2z"
		/>
	<path d="M139.1,241.2c-0.6,0.9-1.9,1.7-3.5,1.7c-3.6,0-5.5-2.9-5.5-6.4c0-3.5,1.9-6.4,5.5-6.4c1.5,0,2.9,0.8,3.5,1.7v-7.1h2.1v18
		h-2.1V241.2z M139.1,234c-0.6-1.3-1.9-2-3.2-2c-2.4,0-3.7,1.9-3.7,4.5c0,2.6,1.4,4.5,3.7,4.5c1.3,0,2.5-0.7,3.2-2V234z"/>
	<path d="M153.1,242.6H151v-18h2.1v7.1c0.6-0.9,1.9-1.7,3.5-1.7c3.6,0,5.5,2.9,5.5,6.4c0,3.5-1.9,6.4-5.5,6.4
		c-1.5,0-2.9-0.8-3.5-1.7V242.6z M153.1,239c0.6,1.3,1.9,2,3.2,2c2.4,0,3.7-1.9,3.7-4.5c0-2.6-1.4-4.5-3.7-4.5c-1.3,0-2.5,0.7-3.2,2
		V239z"/>
	<path d="M166.3,247.3l1.9-4.6l-4.8-12.4h2.2l3.6,9.7l3.6-9.7h2.2l-6.6,17H166.3z"/>
	<path d="M182.8,238.9c1.6,1.4,3.4,2,5.3,2c2.2,0,3.6-0.9,3.6-2.7c0-1.5-0.9-2.1-2.7-2.9l-2.5-1c-2-0.8-3.8-1.9-3.8-4.6
		c0-2.9,2.5-4.5,5.5-4.5c1.9,0,3.6,0.5,4.9,1.4v2.3c-1.4-1.1-2.9-1.8-4.8-1.8c-1.9,0-3.4,0.8-3.4,2.5c0,1.4,1,2.1,2.5,2.7l2.7,1.1
		c2.6,1,3.8,2.4,3.8,4.7c0,2.9-2.4,4.7-5.7,4.7c-2.3,0-4.2-0.7-5.3-1.6V238.9z"/>
	<path d="M198.1,236.8c0.1,2.9,1.9,4.2,4.1,4.2c1.4,0,2.4-0.3,3.5-1.2v1.9c-1,0.8-2.3,1.1-3.7,1.1c-3.5,0-5.9-2.4-5.9-6.3
		c0-3.8,2.2-6.5,5.5-6.5c3.3,0,5,2.4,5,6v0.7H198.1z M198.2,235.2h6.3c-0.1-1.8-1-3.4-3-3.4C199.9,231.8,198.6,232.9,198.2,235.2z"
		/>
	<path d="M211.5,242.6h-2.1v-18h2.1V242.6z"/>
	<path d="M216.4,236.8c0.1,2.9,1.9,4.2,4.1,4.2c1.4,0,2.4-0.3,3.5-1.2v1.9c-1,0.8-2.3,1.1-3.7,1.1c-3.5,0-5.9-2.4-5.9-6.3
		c0-3.8,2.2-6.5,5.5-6.5c3.3,0,5,2.4,5,6v0.7H216.4z M216.5,235.2h6.3c-0.1-1.8-1-3.4-3-3.4C218.2,231.8,216.9,232.9,216.5,235.2z"
		/>
	<path d="M232.7,230.1c1.2,0,2.4,0.3,3.3,1v2.1c-0.9-0.9-2-1.3-3.2-1.3c-2.2,0-4,1.7-4,4.5c0,2.8,1.8,4.5,4,4.5
		c1.2,0,2.3-0.4,3.2-1.3v2.1c-0.9,0.7-2.1,1-3.3,1c-3.3,0-5.9-2.5-5.9-6.4S229.4,230.1,232.7,230.1z"/>
	<path d="M242.4,242.6h-2.1v-10.5h-2.6v-1.8h2.6v-3.2h2.1v3.2h2.9v1.8h-2.9V242.6z"/>
	<path d="M248.8,227.9c-0.7,0-1.3-0.6-1.3-1.3c0-0.7,0.6-1.3,1.3-1.3c0.7,0,1.4,0.6,1.4,1.3C250.1,227.3,249.5,227.9,248.8,227.9z
		 M249.8,242.6h-2.1v-12.3h2.1V242.6z"/>
	<path d="M263.4,242.6h-2.1v-1.6c-0.7,1-2,1.8-3.6,1.8c-2.8,0-4.3-1.8-4.3-4.5v-8.1h2.1v7.7c0,1.7,0.8,2.9,2.7,2.9
		c1.4,0,2.6-1,3.1-2.3v-8.3h2.1V242.6z"/>
	<path d="M279.5,230.1c2.5,0,3.9,1.7,3.9,4.4v8.1h-2.1v-7.8c0-1.7-0.7-2.9-2.3-2.9c-1.2,0-2.3,0.9-2.7,2.2v8.5h-2.1v-7.8
		c0-1.7-0.7-2.9-2.3-2.9c-1.2,0-2.3,0.9-2.7,2.2v8.5H267v-12.3h2.1v1.4c0.6-1,1.8-1.7,3.3-1.7c1.6,0,2.7,0.8,3.3,2
		C276.5,230.9,277.8,230.1,279.5,230.1z"/>
</g>
</svg>
