<?xml version="1.0" encoding="utf-8"?>
<!-- Generator: Adobe Illustrator 21.0.0, SVG Export Plug-In . SVG Version: 6.00 Build 0)  -->
<!DOCTYPE svg PUBLIC "-//W3C//DTD SVG 1.1//EN" "http://www.w3.org/Graphics/SVG/1.1/DTD/svg11.dtd">
<svg version="1.1" id="primary_logo_small" xmlns="http://www.w3.org/2000/svg" xmlns:xlink="http://www.w3.org/1999/xlink" x="0px"
	 y="0px" viewBox="0 0 432 288" enable-background="new 0 0 432 288" xml:space="preserve">
<g>
	<path id="element" fill="#00B388" d="M126.6,109.3v15.9l0,0h55.2v-15.9H126.6z M178.4,121.7h-48.3v-9h48.3V121.7z"/>
	<path d="M136.7,158.2v1.9h-7.8v4.8h7.1v1.9h-7.1v5.3h7.8v1.9h-10.1v-15.9H136.7z M142.1,174H140v-11.7h2v2.2
		c0.8-1.5,2.2-2.4,3.9-2.4c2.7,0,4.3,1.8,4.3,4.4v7.5h-2.2v-7.4c0-1.5-0.8-2.5-2.6-2.5c-1.5,0-2.9,1-3.3,2.4V174z M159.1,174.3
		c-2.9,0-4.1-1.3-4.1-3.6v-6.4h-2.5v-1.9h2.5v-3h2.2v3h3.3v1.9h-3.3v6.2c0,1.4,0.8,1.8,2.1,1.8c0.4,0,0.7,0,1-0.2h0.2v1.9
		C160.1,174.2,159.7,174.3,159.1,174.3z M168.5,174.3c-3.9,0-6.3-2.3-6.3-6c0-3.7,2.3-6.2,5.6-6.2c3.5,0,5.2,2.3,5.2,5.7v1.1h-8.6
		c0.3,2.3,1.9,3.3,4.1,3.3c1.4,0,2.4-0.2,3.4-1h0.2v1.9C171.2,174,169.8,174.3,168.5,174.3z M164.5,167.3h6.5
		c-0.1-2.1-1.2-3.3-3.1-3.3C166,164,164.7,165.4,164.5,167.3z M182.5,164.6c-0.3-0.2-0.8-0.3-1.2-0.3c-1.4,0-2.5,1-2.9,2.5v7.2h-2.2
		v-11.7h2v2.5c0.7-1.9,1.9-2.7,3.3-2.7c0.5,0,1,0.1,1.1,0.2v2.2H182.5z M187,172.1v6.2h-2.2v-16h2v2c0.7-1.2,2-2.3,3.8-2.3
		c3.5,0,5.4,2.8,5.4,6c0,3.2-1.9,6.1-5.4,6.1C189,174.2,187.7,173.3,187,172.1z M193.8,168.1c0-2.4-1.3-3.9-3.7-3.9
		c-1.4,0-2.5,0.7-3.2,2v4c0.7,1.2,1.8,2,3.2,2C192.5,172.2,193.8,170.5,193.8,168.1z M205.6,164.6c-0.3-0.2-0.8-0.3-1.2-0.3
		c-1.4,0-2.5,1-2.9,2.5v7.2h-2.2v-11.7h2v2.5c0.7-1.9,1.9-2.7,3.3-2.7c0.5,0,1,0.1,1.1,0.2v2.2H205.6z M209.3,161.2
		c-0.8,0-1.5-0.7-1.5-1.5c0-0.8,0.7-1.5,1.5-1.5c0.8,0,1.5,0.7,1.5,1.5C210.8,160.5,210.1,161.2,209.3,161.2z M210.4,174h-2.2v-11.7
		h2.2V174z M213.9,171.3h0.2c1,0.8,2.4,1.2,3.7,1.2c1.3,0,2.4-0.5,2.4-1.5c0-1-0.9-1.3-2.8-1.9c-1.7-0.6-3.5-1.1-3.5-3.4
		c0-2.3,1.9-3.6,4.3-3.6c1.4,0,2.6,0.3,3.6,1v2h-0.2c-0.9-0.7-2-1.1-3.4-1.1c-1.4,0-2.1,0.6-2.1,1.5c0,1,0.8,1.2,2.7,1.8
		c1.7,0.6,3.6,1.2,3.6,3.4c0,2.4-2,3.7-4.5,3.7c-1.5,0-3.1-0.4-4-1.1V171.3z M231.1,174.3c-3.9,0-6.3-2.3-6.3-6
		c0-3.7,2.3-6.2,5.6-6.2c3.5,0,5.2,2.3,5.2,5.7v1.1H227c0.3,2.3,1.9,3.3,4.1,3.3c1.4,0,2.4-0.2,3.4-1h0.2v1.9
		C233.8,174,232.4,174.3,231.1,174.3z M227.1,167.3h6.5c-0.1-2.1-1.2-3.3-3.1-3.3C228.6,164,227.3,165.4,227.1,167.3z M139.9,135.5
		v15.9h-3.5v-6.6h-6.4v6.6h-3.5v-15.9h3.5v6.3h6.4v-6.3H139.9z M149.3,151.7c-4.4,0-6.7-2.4-6.7-6.2c0-3.8,2.4-6.3,6-6.3
		c3.8,0,5.7,2.4,5.7,6v1.3h-8.1c0.3,2,1.8,2.5,3.3,2.5c1.4,0,2.4-0.2,3.6-0.8h0.4v2.5C152.4,151.4,150.8,151.7,149.3,151.7z
		 M146.1,144.3h4.7c-0.1-1.8-0.9-2.6-2.3-2.6C147.4,141.8,146.4,142.3,146.1,144.3z M158.3,151.4l-2.5-11.5v-0.4h3.2l1.3,7.3
		l0.3,2.3l0.5-2.3l1.6-7.3h3.6l1.6,7.3l0.5,2.3l0.4-2.3l1.3-7.3h3v0.4l-2.5,11.5h-4.4l-1.4-6.4l-0.4-2.4l-0.4,2.4l-1.4,6.4H158.3z
		 M179.4,151.7c-2.5,0-3.8-1.2-3.8-3.9v-12.3h3.5v12c0,0.8,0.4,1.1,1.2,1.1c0.3,0,0.7-0.1,0.9-0.2h0.1v2.9
		C180.8,151.5,180,151.7,179.4,151.7z M188.9,151.7c-4.4,0-6.7-2.4-6.7-6.2c0-3.8,2.4-6.3,6-6.3c3.8,0,5.7,2.4,5.7,6v1.3h-8.1
		c0.3,2,1.8,2.5,3.3,2.5c1.4,0,2.4-0.2,3.6-0.8h0.4v2.5C192,151.4,190.3,151.7,188.9,151.7z M185.7,144.3h4.7
		c-0.1-1.8-0.9-2.6-2.3-2.6C187,141.8,185.9,142.3,185.7,144.3z M205.5,147.1v-4.7h-5.1v4.6c0,1.2,0.4,1.8,1.5,1.8
		c0.3,0,0.8-0.1,1-0.2h0.3v2.8c-0.5,0.2-1.1,0.4-2.2,0.4c-2.9,0-4.2-1.4-4.2-4.6v-4.7H195v-2.8h2.1v-2.9h3.5v2.9h5.1v-2.9h3.5v2.9
		h2.9v2.8H209v4.6c0,1.2,0.4,1.8,1.5,1.8c0.3,0,0.8-0.1,1-0.2h0.3v2.8c-0.5,0.2-1.1,0.4-2.2,0.4
		C206.8,151.7,205.5,150.3,205.5,147.1z M222,146.5v4.9h-3.4v-15.9h6.2c3.5,0,5.8,1.9,5.8,5.5c0,3.5-2.3,5.5-5.8,5.5H222z
		 M224.5,138.5H222v5.1h2.5c1.7,0,2.6-1,2.6-2.5C227.1,139.5,226.2,138.5,224.5,138.5z M239.3,149.6c-0.7,1.3-2,1.9-3.6,1.9
		c-2.2,0-4-1.3-4-3.6c0-2.4,1.6-3.7,4.6-3.7c1,0,2,0.1,2.9,0.3v-0.7c0-1.3-0.9-1.8-2.7-1.8c-1.3,0-2.4,0.3-3.3,0.7h-0.4v-2.6
		c0.9-0.5,2.5-0.9,4.1-0.9c3.7,0,5.7,1.7,5.7,4.6v7.6h-3.3V149.6z M239.2,147.7v-1.5c-0.6-0.2-1.3-0.2-2-0.2c-1.4,0-2.1,0.5-2.1,1.6
		c0,1.1,0.7,1.5,1.8,1.5C238,149.1,238.9,148.6,239.2,147.7z M245.2,145.5c0-3.9,2.7-6.3,6.2-6.3c1.4,0,2.6,0.3,3.3,0.8v3h-0.4
		c-0.7-0.6-1.5-0.8-2.6-0.8c-1.7,0-3.1,1.2-3.1,3.2c0,2,1.4,3.2,3.1,3.2c1,0,1.9-0.3,2.6-0.8h0.4v3c-0.8,0.5-1.9,0.8-3.3,0.8
		C247.9,151.7,245.2,149.3,245.2,145.5z M260.9,145.6v5.8h-3.5v-15.9h3.5v9l0.8-1.2l3.2-3.9h3.7v0.4l-4.4,5l4.4,6.1v0.4h-3.9
		l-2.9-4.4L260.9,145.6z M277,149.6c-0.7,1.3-2,1.9-3.6,1.9c-2.2,0-4-1.3-4-3.6c0-2.4,1.6-3.7,4.6-3.7c1,0,2,0.1,2.9,0.3v-0.7
		c0-1.3-0.9-1.8-2.7-1.8c-1.3,0-2.4,0.3-3.3,0.7h-0.4v-2.6c0.9-0.5,2.5-0.9,4.1-0.9c3.7,0,5.7,1.7,5.7,4.6v7.6H277V149.6z
		 M276.9,147.7v-1.5c-0.6-0.2-1.3-0.2-2-0.2c-1.4,0-2.1,0.5-2.1,1.6c0,1.1,0.7,1.5,1.8,1.5C275.6,149.1,276.5,148.6,276.9,147.7z
		 M286.7,141.9c0.6-1.8,2-2.5,3.3-2.5c0.5,0,0.8,0.1,1,0.2v3.3h-0.4c-0.4-0.2-0.7-0.3-1.2-0.3c-1.4,0-2.4,0.6-2.6,2v6.9h-3.5v-11.9
		h3.3V141.9z M301,149.7c-0.8,1.2-2,2-3.6,2c-3.2,0-5.3-2.6-5.3-6.2c0-3.6,2-6.3,5.3-6.3c1.4,0,2.6,0.6,3.4,1.7v-5.4h3.5v15.9H301
		V149.7z M300.9,147.5v-4.2c-0.6-0.9-1.5-1.3-2.5-1.3c-1.6,0-2.6,1.2-2.6,3.5c0,2.2,1.1,3.4,2.6,3.4
		C299.4,148.9,300.2,148.4,300.9,147.5z"/>
</g>
<g>
	<path d="M129.5,194.5c-1.7,0-2.8-1.3-2.8-3.2s1.1-3.2,2.8-3.2c1.7,0,2.8,1.3,2.8,3.2S131.2,194.5,129.5,194.5z M129.5,189
		c-1.1,0-1.8,0.9-1.8,2.3c0,1.4,0.7,2.3,1.8,2.3c1.1,0,1.8-0.9,1.8-2.3C131.3,189.9,130.6,189,129.5,189z"/>
	<path d="M134.8,196.7h-1v-8.6h1v0.7c0.3-0.4,1-0.9,1.7-0.9c1.8,0,2.8,1.5,2.8,3.2s-1,3.2-2.8,3.2c-0.8,0-1.4-0.4-1.7-0.9V196.7z
		 M134.8,192.5c0.3,0.6,0.9,1,1.6,1c1.2,0,1.9-1,1.9-2.3s-0.7-2.3-1.9-2.3c-0.7,0-1.3,0.4-1.6,1V192.5z"/>
	<path d="M141.4,191.5c0,1.4,0.9,2.1,2.1,2.1c0.7,0,1.2-0.2,1.8-0.6v1c-0.5,0.4-1.1,0.5-1.9,0.5c-1.8,0-3-1.2-3-3.2
		c0-1.9,1.1-3.3,2.8-3.3c1.7,0,2.5,1.2,2.5,3v0.4H141.4z M141.4,190.6h3.2c0-0.9-0.5-1.7-1.5-1.7
		C142.3,188.9,141.6,189.5,141.4,190.6z"/>
	<path d="M150.2,189.2c-0.2-0.1-0.4-0.2-0.7-0.2c-0.7,0-1.2,0.4-1.4,1.2v4.2h-1v-6.2h1v0.8c0.3-0.5,0.9-0.9,1.5-0.9
		c0.3,0,0.5,0,0.6,0.1V189.2z"/>
	<path d="M154.8,190.2c0-0.8-0.6-1.2-1.5-1.2c-0.7,0-1.2,0.2-1.8,0.5v-1c0.4-0.3,1.2-0.5,1.9-0.5c1.5,0,2.3,0.8,2.3,2.1v4.2h-1v-0.5
		c-0.2,0.3-0.9,0.6-1.6,0.6c-1.3,0-2.3-0.8-2.3-2c0-1.2,1-1.9,2.4-1.9c0.6,0,1.3,0.3,1.5,0.5V190.2z M154.8,192.2
		c-0.2-0.5-0.8-0.8-1.4-0.8c-0.8,0-1.5,0.3-1.5,1.1c0,0.8,0.7,1.1,1.5,1.1c0.7,0,1.3-0.3,1.4-0.8V192.2z"/>
	<path d="M159.3,194.4h-1v-5.3H157v-0.9h1.3v-1.6h1v1.6h1.4v0.9h-1.4V194.4z"/>
	<path d="M162.5,191.5c0,1.4,0.9,2.1,2.1,2.1c0.7,0,1.2-0.2,1.8-0.6v1c-0.5,0.4-1.1,0.5-1.9,0.5c-1.8,0-3-1.2-3-3.2
		c0-1.9,1.1-3.3,2.8-3.3c1.7,0,2.5,1.2,2.5,3v0.4H162.5z M162.6,190.6h3.2c0-0.9-0.5-1.7-1.5-1.7
		C163.4,188.9,162.8,189.5,162.6,190.6z"/>
	<path d="M172.3,193.6c-0.3,0.4-1,0.9-1.7,0.9c-1.8,0-2.8-1.5-2.8-3.2c0-1.7,1-3.2,2.8-3.2c0.8,0,1.4,0.4,1.7,0.9v-3.6h1.1v9.1h-1.1
		V193.6z M172.3,190c-0.3-0.6-0.9-1-1.6-1c-1.2,0-1.9,1-1.9,2.3s0.7,2.3,1.9,2.3c0.7,0,1.3-0.4,1.6-1V190z"/>
	<path d="M179.4,194.4h-1.1v-9.1h1.1v3.6c0.3-0.4,1-0.9,1.7-0.9c1.8,0,2.8,1.5,2.8,3.2c0,1.8-1,3.2-2.8,3.2c-0.8,0-1.4-0.4-1.7-0.9
		V194.4z M179.4,192.5c0.3,0.6,0.9,1,1.6,1c1.2,0,1.9-1,1.9-2.3s-0.7-2.3-1.9-2.3c-0.7,0-1.3,0.4-1.6,1V192.5z"/>
	<path d="M186,196.7l0.9-2.3l-2.4-6.2h1.1l1.8,4.9l1.8-4.9h1.1l-3.3,8.6H186z"/>
	<path d="M194.3,192.5c0.8,0.7,1.7,1,2.7,1c1.1,0,1.8-0.5,1.8-1.4c0-0.8-0.5-1.1-1.4-1.4l-1.3-0.5c-1-0.4-1.9-1-1.9-2.3
		c0-1.5,1.3-2.2,2.8-2.2c0.9,0,1.8,0.3,2.5,0.7v1.2c-0.7-0.5-1.5-0.9-2.4-0.9c-0.9,0-1.7,0.4-1.7,1.3c0,0.7,0.5,1,1.3,1.3l1.4,0.5
		c1.3,0.5,1.9,1.2,1.9,2.4c0,1.5-1.2,2.3-2.9,2.3c-1.2,0-2.1-0.3-2.7-0.8V192.5z"/>
	<path d="M202,191.5c0,1.4,0.9,2.1,2.1,2.1c0.7,0,1.2-0.2,1.8-0.6v1c-0.5,0.4-1.1,0.5-1.9,0.5c-1.8,0-3-1.2-3-3.2
		c0-1.9,1.1-3.3,2.8-3.3c1.7,0,2.5,1.2,2.5,3v0.4H202z M202.1,190.6h3.2c0-0.9-0.5-1.7-1.5-1.7C202.9,188.9,202.3,189.5,202.1,190.6
		z"/>
	<path d="M208.8,194.4h-1v-9.1h1V194.4z"/>
	<path d="M211.2,191.5c0,1.4,0.9,2.1,2.1,2.1c0.7,0,1.2-0.2,1.8-0.6v1c-0.5,0.4-1.1,0.5-1.9,0.5c-1.8,0-3-1.2-3-3.2
		c0-1.9,1.1-3.3,2.8-3.3c1.7,0,2.5,1.2,2.5,3v0.4H211.2z M211.3,190.6h3.2c0-0.9-0.5-1.7-1.5-1.7
		C212.1,188.9,211.5,189.5,211.3,190.6z"/>
	<path d="M219.5,188c0.6,0,1.2,0.1,1.7,0.5v1.1c-0.4-0.4-1-0.6-1.6-0.6c-1.1,0-2,0.9-2,2.3c0,1.4,0.9,2.3,2,2.3
		c0.6,0,1.1-0.2,1.6-0.6v1.1c-0.4,0.4-1.1,0.5-1.7,0.5c-1.7,0-3-1.2-3-3.2S217.8,188,219.5,188z"/>
	<path d="M224.3,194.4h-1v-5.3H222v-0.9h1.3v-1.6h1v1.6h1.4v0.9h-1.4V194.4z"/>
	<path d="M227.6,187c-0.4,0-0.7-0.3-0.7-0.7c0-0.4,0.3-0.7,0.7-0.7c0.4,0,0.7,0.3,0.7,0.7C228.2,186.7,227.9,187,227.6,187z
		 M228.1,194.4h-1v-6.2h1V194.4z"/>
	<path d="M234.9,194.4h-1.1v-0.8c-0.3,0.5-1,0.9-1.8,0.9c-1.4,0-2.2-0.9-2.2-2.3v-4.1h1.1v3.9c0,0.9,0.4,1.5,1.4,1.5
		c0.7,0,1.3-0.5,1.5-1.2v-4.2h1.1V194.4z"/>
	<path d="M243,188c1.3,0,2,0.9,2,2.2v4.1h-1.1v-3.9c0-0.9-0.4-1.4-1.2-1.4c-0.6,0-1.2,0.4-1.4,1.1v4.3h-1v-3.9
		c0-0.9-0.4-1.4-1.2-1.4c-0.6,0-1.2,0.4-1.4,1.1v4.3h-1v-6.2h1v0.7c0.3-0.5,0.9-0.9,1.7-0.9c0.8,0,1.4,0.4,1.7,1
		C241.6,188.5,242.2,188,243,188z"/>
</g>
</svg>
