<?xml version="1.0" encoding="utf-8"?>
<!-- Generator: Adobe Illustrator 19.0.0, SVG Export Plug-In . SVG Version: 6.00 Build 0)  -->
<svg version="1.1" id="Layer_1" xmlns="http://www.w3.org/2000/svg" xmlns:xlink="http://www.w3.org/1999/xlink" x="0px" y="0px"
	 viewBox="-5840 1394.6 792 612" style="enable-background:new -5840 1394.6 792 612;" xml:space="preserve">
<style type="text/css">
	.st0{fill:#646569;}
	.st1{fill:#F5831F;}
</style>
<g>
	<path class="st0" d="M-5475.2,1705.7c0-0.3-0.3-0.6-0.7-0.6c-0.3,0-0.6,0.1-0.8,0.2v-0.4c0.2-0.1,0.5-0.2,0.9-0.2
		c0.7,0,1.1,0.4,1.1,1v1.9h-0.5v-0.2c-0.1,0.1-0.4,0.3-0.7,0.3c-0.6,0-1-0.3-1-0.9c0-0.5,0.5-0.9,1.1-0.9c0.3,0,0.6,0.1,0.7,0.2
		V1705.7L-5475.2,1705.7z M-5475.2,1706.6c-0.1-0.2-0.4-0.3-0.7-0.3c-0.3,0-0.7,0.2-0.7,0.5c0,0.3,0.3,0.5,0.7,0.5
		c0.3,0,0.6-0.1,0.7-0.3V1706.6z M-5469.3,1703.7v3.9h-0.5v-1.8h-2.2v1.8h-0.5v-3.9h0.5v1.7h2.2v-1.7H-5469.3z M-5468.1,1706.2
		c0,0.7,0.4,1,0.9,1c0.3,0,0.5-0.1,0.8-0.3v0.4c-0.2,0.2-0.5,0.2-0.9,0.2c-0.8,0-1.4-0.6-1.4-1.4c0-0.9,0.5-1.5,1.3-1.5
		c0.8,0,1.2,0.6,1.2,1.4v0.2L-5468.1,1706.2L-5468.1,1706.2z M-5468.1,1705.9h1.5c0-0.4-0.2-0.8-0.7-0.8
		C-5467.7,1705.1-5468,1705.3-5468.1,1705.9z M-5463.2,1706.9l0.6-2.2h0.5l-0.8,2.8h-0.5l-0.6-2.1l-0.6,2.1h-0.5l-0.8-2.8h0.5
		l0.6,2.2l0.6-2.2h0.4L-5463.2,1706.9z M-5461.1,1707.6h-0.5v-4.1h0.5V1707.6z M-5460,1706.2c0,0.7,0.4,1,0.9,1
		c0.3,0,0.5-0.1,0.8-0.3v0.4c-0.2,0.2-0.5,0.2-0.9,0.2c-0.8,0-1.4-0.6-1.4-1.4c0-0.9,0.5-1.5,1.3-1.5c0.8,0,1.2,0.6,1.2,1.4v0.2
		L-5460,1706.2L-5460,1706.2z M-5460,1705.9h1.5c0-0.4-0.2-0.8-0.7-0.8C-5459.6,1705.1-5459.9,1705.3-5460,1705.9z M-5456.7,1707.6
		h-0.5v-2.4h-0.6v-0.4h0.6v-0.7h0.5v0.7h0.7v0.4h-0.7V1707.6z M-5454.6,1707.6h-0.5v-2.4h-0.6v-0.4h0.6v-0.7h0.5v0.7h0.7v0.4h-0.7
		V1707.6z M-5451.3,1706v1.6h-0.5v-3.9h1.4c0.8,0,1.3,0.4,1.3,1.2c0,0.8-0.5,1.2-1.3,1.2L-5451.3,1706L-5451.3,1706z
		 M-5450.4,1704.1h-0.9v1.5h0.9c0.5,0,0.8-0.3,0.8-0.7C-5449.6,1704.4-5449.9,1704.1-5450.4,1704.1z M-5447,1705.7
		c0-0.3-0.3-0.6-0.7-0.6c-0.3,0-0.6,0.1-0.8,0.2v-0.4c0.2-0.1,0.5-0.2,0.9-0.2c0.7,0,1.1,0.4,1.1,1v1.9h-0.5v-0.2
		c-0.1,0.1-0.4,0.3-0.7,0.3c-0.6,0-1-0.3-1-0.9c0-0.5,0.5-0.9,1.1-0.9c0.3,0,0.6,0.1,0.7,0.2V1705.7L-5447,1705.7z M-5447,1706.6
		c-0.1-0.2-0.4-0.3-0.7-0.3c-0.3,0-0.7,0.2-0.7,0.5c0,0.3,0.3,0.5,0.7,0.5c0.3,0,0.6-0.1,0.7-0.3V1706.6z M-5444.6,1704.7
		c0.3,0,0.6,0.1,0.8,0.2v0.5c-0.2-0.2-0.5-0.3-0.7-0.3c-0.5,0-0.9,0.4-0.9,1c0,0.6,0.4,1,0.9,1c0.3,0,0.5-0.1,0.7-0.3v0.5
		c-0.2,0.2-0.5,0.2-0.8,0.2c-0.8,0-1.4-0.6-1.4-1.5S-5445.3,1704.7-5444.6,1704.7z M-5440.8,1707.6h-0.6l-1.3-1.4v1.4h-0.5v-4.1h0.5
		v2.5l1.2-1.2h0.6l-1.4,1.3L-5440.8,1707.6z M-5438.8,1705.7c0-0.3-0.3-0.6-0.7-0.6c-0.3,0-0.6,0.1-0.8,0.2v-0.4
		c0.2-0.1,0.5-0.2,0.9-0.2c0.7,0,1.1,0.4,1.1,1v1.9h-0.5v-0.2c-0.1,0.1-0.4,0.3-0.7,0.3c-0.6,0-1-0.3-1-0.9c0-0.5,0.5-0.9,1.1-0.9
		c0.3,0,0.6,0.1,0.7,0.2V1705.7L-5438.8,1705.7z M-5438.8,1706.6c-0.1-0.2-0.4-0.3-0.7-0.3c-0.3,0-0.7,0.2-0.7,0.5
		c0,0.3,0.3,0.5,0.7,0.5c0.3,0,0.6-0.1,0.7-0.3V1706.6z M-5436.1,1705.2c-0.1-0.1-0.2-0.1-0.3-0.1c-0.3,0-0.6,0.2-0.7,0.5v1.9h-0.5
		v-2.8h0.5v0.4c0.1-0.2,0.4-0.4,0.7-0.4c0.1,0,0.2,0,0.3,0V1705.2z M-5433.7,1707.2c-0.1,0.2-0.4,0.4-0.8,0.4
		c-0.8,0-1.3-0.7-1.3-1.5c0-0.8,0.4-1.5,1.3-1.5c0.3,0,0.7,0.2,0.8,0.4v-1.6h0.5v4.1h-0.5V1707.2z M-5433.7,1705.6
		c-0.1-0.3-0.4-0.5-0.7-0.5c-0.5,0-0.9,0.4-0.9,1c0,0.6,0.3,1,0.9,1c0.3,0,0.6-0.2,0.7-0.5V1705.6z M-5476.2,1710v0.4h-2v1.2h1.8
		v0.4h-1.8v1.3h2v0.4h-2.5v-3.9L-5476.2,1710L-5476.2,1710z M-5475.6,1711.1h0.5v0.4c0.2-0.2,0.5-0.4,0.8-0.4c0.6,0,1,0.4,1,1v1.8
		h-0.5v-1.8c0-0.4-0.2-0.7-0.6-0.7c-0.3,0-0.6,0.2-0.7,0.5v1.9h-0.5V1711.1L-5475.6,1711.1z M-5471.7,1713.9h-0.5v-2.4h-0.6v-0.4
		h0.6v-0.7h0.5v0.7h0.7v0.4h-0.7V1713.9z M-5470.3,1712.6c0,0.7,0.4,1,0.9,1c0.3,0,0.5-0.1,0.8-0.3v0.4c-0.2,0.2-0.5,0.2-0.9,0.2
		c-0.8,0-1.4-0.6-1.4-1.4c0-0.9,0.5-1.5,1.3-1.5c0.8,0,1.2,0.6,1.2,1.4v0.2L-5470.3,1712.6L-5470.3,1712.6z M-5470.3,1712.2h1.5
		c0-0.4-0.2-0.8-0.7-0.8C-5469.9,1711.4-5470.2,1711.7-5470.3,1712.2z M-5466.3,1711.6c-0.1-0.1-0.2-0.1-0.3-0.1
		c-0.3,0-0.6,0.2-0.7,0.5v1.9h-0.5v-2.8h0.5v0.4c0.1-0.2,0.4-0.4,0.7-0.4c0.1,0,0.2,0,0.3,0L-5466.3,1711.6L-5466.3,1711.6z
		 M-5465.3,1715h-0.5v-3.9h0.5v0.3c0.1-0.2,0.4-0.4,0.8-0.4c0.8,0,1.3,0.7,1.3,1.5c0,0.8-0.4,1.5-1.3,1.5c-0.3,0-0.6-0.2-0.8-0.4
		V1715z M-5465.3,1713.1c0.1,0.3,0.4,0.5,0.7,0.5c0.5,0,0.9-0.4,0.9-1c0-0.6-0.3-1-0.9-1c-0.3,0-0.6,0.2-0.7,0.5V1713.1z
		 M-5461.1,1711.6c-0.1-0.1-0.2-0.1-0.3-0.1c-0.3,0-0.6,0.2-0.7,0.5v1.9h-0.5v-2.8h0.5v0.4c0.1-0.2,0.4-0.4,0.7-0.4
		c0.1,0,0.2,0,0.3,0V1711.6z M-5460.4,1710.5c-0.2,0-0.3-0.1-0.3-0.3c0-0.2,0.1-0.3,0.3-0.3c0.2,0,0.3,0.1,0.3,0.3
		C-5460,1710.4-5460.2,1710.5-5460.4,1710.5z M-5460.1,1713.9h-0.5v-2.8h0.5V1713.9z M-5459.4,1713.2c0.3,0.2,0.6,0.4,0.9,0.4
		c0.3,0,0.6-0.1,0.6-0.4c0-0.2-0.2-0.3-0.4-0.4l-0.4-0.1c-0.4-0.1-0.7-0.3-0.7-0.8c0-0.5,0.4-0.8,1-0.8c0.3,0,0.6,0.1,0.8,0.2v0.5
		c-0.2-0.2-0.5-0.3-0.8-0.3c-0.3,0-0.5,0.1-0.5,0.4c0,0.2,0.2,0.3,0.4,0.4l0.4,0.1c0.4,0.1,0.7,0.4,0.7,0.8c0,0.5-0.5,0.8-1.1,0.8
		c-0.4,0-0.7-0.1-0.9-0.3L-5459.4,1713.2L-5459.4,1713.2z M-5456.5,1712.6c0,0.7,0.4,1,0.9,1c0.3,0,0.5-0.1,0.8-0.3v0.4
		c-0.2,0.2-0.5,0.2-0.9,0.2c-0.8,0-1.4-0.6-1.4-1.4c0-0.9,0.5-1.5,1.3-1.5c0.8,0,1.2,0.6,1.2,1.4v0.2L-5456.5,1712.6L-5456.5,1712.6
		z M-5456.5,1712.2h1.5c0-0.4-0.2-0.8-0.7-0.8C-5456.1,1711.4-5456.4,1711.7-5456.5,1712.2z M-5451.3,1711c0.3,0,0.6,0.1,0.8,0.2
		v0.5c-0.2-0.2-0.5-0.3-0.7-0.3c-0.5,0-0.9,0.4-0.9,1c0,0.6,0.4,1,0.9,1c0.3,0,0.5-0.1,0.7-0.3v0.5c-0.2,0.2-0.5,0.2-0.8,0.2
		c-0.8,0-1.4-0.6-1.4-1.5C-5452.7,1711.6-5452.1,1711-5451.3,1711z M-5448.9,1713.9c-0.8,0-1.3-0.6-1.3-1.5c0-0.9,0.5-1.5,1.3-1.5
		c0.8,0,1.3,0.6,1.3,1.5C-5447.6,1713.3-5448.1,1713.9-5448.9,1713.9z M-5448.9,1711.4c-0.5,0-0.8,0.4-0.8,1c0,0.6,0.3,1,0.8,1
		c0.5,0,0.8-0.4,0.8-1C-5448,1711.9-5448.4,1711.4-5448.9,1711.4z M-5444.1,1711c0.6,0,0.9,0.4,0.9,1v1.9h-0.5v-1.8
		c0-0.4-0.2-0.7-0.5-0.7c-0.3,0-0.5,0.2-0.6,0.5v1.9h-0.5v-1.8c0-0.4-0.2-0.7-0.5-0.7c-0.3,0-0.5,0.2-0.6,0.5v1.9h-0.5v-2.8h0.5v0.3
		c0.1-0.2,0.4-0.4,0.8-0.4c0.4,0,0.6,0.2,0.8,0.5C-5444.8,1711.2-5444.5,1711-5444.1,1711z M-5441.9,1715h-0.5v-3.9h0.5v0.3
		c0.1-0.2,0.4-0.4,0.8-0.4c0.8,0,1.3,0.7,1.3,1.5c0,0.8-0.4,1.5-1.3,1.5c-0.3,0-0.6-0.2-0.8-0.4V1715z M-5441.9,1713.1
		c0.1,0.3,0.4,0.5,0.7,0.5c0.5,0,0.9-0.4,0.9-1c0-0.6-0.3-1-0.9-1c-0.3,0-0.6,0.2-0.7,0.5V1713.1z M-5437.6,1712
		c0-0.3-0.3-0.6-0.7-0.6c-0.3,0-0.6,0.1-0.8,0.2v-0.4c0.2-0.1,0.5-0.2,0.9-0.2c0.7,0,1.1,0.4,1.1,1v1.9h-0.5v-0.2
		c-0.1,0.1-0.4,0.3-0.7,0.3c-0.6,0-1-0.3-1-0.9c0-0.5,0.5-0.9,1.1-0.9c0.3,0,0.6,0.1,0.7,0.2L-5437.6,1712L-5437.6,1712z
		 M-5437.6,1712.9c-0.1-0.2-0.4-0.3-0.7-0.3c-0.3,0-0.7,0.2-0.7,0.5c0,0.3,0.3,0.5,0.7,0.5c0.3,0,0.6-0.1,0.7-0.3V1712.9z
		 M-5436.4,1711.1h0.5v0.4c0.2-0.2,0.5-0.4,0.8-0.4c0.6,0,1,0.4,1,1v1.8h-0.5v-1.8c0-0.4-0.2-0.7-0.6-0.7c-0.3,0-0.6,0.2-0.7,0.5
		v1.9h-0.5V1711.1z M-5433,1715l0.4-1.1l-1.1-2.8h0.5l0.8,2.2l0.8-2.2h0.5l-1.5,3.9H-5433L-5433,1715z"/>
	<path class="st1" d="M-5451.4,1694.6L-5451.4,1694.6c0,3-2.4,5.4-5.3,5.4s-5.3-2.4-5.3-5.4l0,0v-4.6c0,0,2.5,0.6,2.5,3.3v1.2
		c0,1.6,1.2,2.9,2.7,2.9c1.5,0,2.7-1.3,2.7-2.9v-2.6v0v0c0.1-2.2,2-2.9,2.5-3.2h0.1v3.1L-5451.4,1694.6L-5451.4,1694.6z
		 M-5464.9,1689.3c0.7,0,1.4,0.1,2,0.4v2.8c-0.5-0.4-1.2-0.7-2-0.7c-1.7,0-3,1.3-3,2.9v5.3h-2.5v-5.2v-0.1v-4.4c0,0,1,0,1.7,0.5
		C-5467.8,1689.9-5466.4,1689.3-5464.9,1689.3 M-5477,1697.6c-1.7,0-3.1-1.3-3.1-3c0-1.6,1.4-3,3.1-3s3.1,1.3,3.1,3
		C-5474,1696.3-5475.3,1697.6-5477,1697.6 M-5477,1689.3c-3,0-5.5,2.4-5.5,5.4c0,3,2.5,5.4,5.5,5.4c1.3,0,2.4-0.4,3.3-1.1
		c0.6,0.9,2.2,1.1,2.2,1.1v-0.9v-4.3v-0.2C-5471.5,1691.7-5474,1689.3-5477,1689.3 M-5433.1,1697.6c-1.7,0-3.1-1.3-3.1-3
		c0-1.6,1.4-3,3.1-3c1.7,0,3.1,1.3,3.1,3C-5430,1696.3-5431.4,1697.6-5433.1,1697.6 M-5433.1,1689.3c-3,0-5.5,2.4-5.5,5.4
		c0,3,2.5,5.4,5.5,5.4c1.3,0,2.4-0.4,3.3-1.1c0.6,0.9,2.2,1.1,2.2,1.1v-0.9v-4.3v-0.2C-5427.6,1691.7-5430.1,1689.3-5433.1,1689.3
		 M-5444.7,1697.6c-1.7,0-3.1-1.3-3.1-3c0-1.6,1.4-3,3.1-3c1.7,0,3.1,1.3,3.1,3C-5441.7,1696.3-5443.1,1697.6-5444.7,1697.6
		 M-5444.7,1689.3c-1.1,0-2.2,0.3-3,0.9v-0.8c-0.1-2.2-1.9-2.9-2.4-3.2h-0.1v8.5v0.3v4.2v0.9c0,0,1.6-0.2,2.3-1.1c0.9,0.6,2,1,3.2,1
		c3,0,5.5-2.4,5.5-5.4C-5439.2,1691.7-5441.7,1689.3-5444.7,1689.3"/>
</g>
</svg>
